<?xml version="1.0" standalone="no"?><!DOCTYPE svg PUBLIC "-//W3C//DTD SVG 1.1//EN" "http://www.w3.org/Graphics/SVG/1.1/DTD/svg11.dtd"><svg class="icon" width="200px" height="200.00px" viewBox="0 0 1024 1024" version="1.1" xmlns="http://www.w3.org/2000/svg"><path d="M503.941696 1020.782434a35.878638 35.878638 0 0 1-20.401578-46.431179l113.263936-295.726958a59.733776 59.733776 0 0 1 56.024398-38.820558h5.691976a60.181459 60.181459 0 0 1 50.332422 38.372875l113.455801 296.174641a35.942593 35.942593 0 0 1-33.576266 48.797507h-0.639548a35.814683 35.814683 0 0 1-33.384402-23.21559l-25.581916-67.856034H574.483832l-23.791183 67.280441a3.06983 3.06983 0 0 0 0 1.087232 35.814683 35.814683 0 0 1-46.431179 20.337623z m142.171503-301.09916l-53.210387 158.224155h122.281562c-23.535363-63.954792-48.221913-130.148002-58.710499-158.479974a5.947796 5.947796 0 0 0-3.261694-3.261695 5.436157 5.436157 0 0 0-1.918644-0.319774 5.564067 5.564067 0 0 0-5.180338 3.901243z m237.016459 267.203121v-303.273624a36.326322 36.326322 0 1 1 72.652643 0v303.337578a36.262367 36.262367 0 0 1-36.262367 36.262368 36.198412 36.198412 0 0 1-36.390276-36.262368z m-736.247565 19.186437a72.844508 72.844508 0 0 1-72.844508-72.524734V104.63004A72.844508 72.844508 0 0 1 146.882093 31.785532h707.403954a72.844508 72.844508 0 0 1 72.844508 72.844508v423.124903a38.56474 38.56474 0 0 1-77.12948 0V108.915011H151.167064v820.092297h236.63273a38.56474 38.56474 0 1 1 0 77.129479z m157.392743-472.114274a38.56474 38.56474 0 1 1 0-77.129479h248.272502a38.56474 38.56474 0 1 1 0 77.129479z m0-210.091492a38.56474 38.56474 0 1 1 0-77.129479h402.915189a38.56474 38.56474 0 0 1 0 77.129479z" fill="#606266" /></svg>