<?xml version="1.0" standalone="no"?><!DOCTYPE svg PUBLIC "-//W3C//DTD SVG 1.1//EN" "http://www.w3.org/Graphics/SVG/1.1/DTD/svg11.dtd"><svg class="icon" width="200px" height="200.00px" viewBox="0 0 1024 1024" version="1.1" xmlns="http://www.w3.org/2000/svg"><path d="M505.173333 989.866667c-13.653333 0-34.133333-6.826667-47.786666-13.653334l-375.466667-191.146666c-34.133333-20.48-54.613333-54.613333-54.613333-88.746667V327.68c0-40.96 20.48-75.093333 54.613333-88.746667L457.386667 47.786667c27.306667-13.653333 68.266667-13.653333 95.573333 0l375.466667 191.146666c34.133333 20.48 54.613333 54.613333 54.613333 88.746667v368.64c0 40.96-20.48 75.093333-54.613333 88.746667l-375.466667 191.146666c-13.653333 6.826667-27.306667 13.653333-47.786667 13.653334z m0-901.12c-6.826667 0-13.653333 0-20.48 6.826666L109.226667 286.72c-13.653333 6.826667-20.48 20.48-20.48 40.96v368.64c0 13.653333 6.826667 27.306667 20.48 34.133333l375.466666 191.146667c13.653333 6.826667 27.306667 6.826667 40.96 0l375.466667-191.146667c13.653333-6.826667 20.48-20.48 20.48-34.133333V327.68c0-13.653333-6.826667-27.306667-20.48-34.133333L525.653333 95.573333c-6.826667 0-13.653333-6.826667-20.48-6.826666z" fill="#262D47" /><path d="M505.173333 798.72c-13.653333 0-27.306667-13.653333-27.306666-27.306667V505.173333c0-13.653333 13.653333-27.306667 27.306666-27.306666s27.306667 13.653333 27.306667 27.306666v266.24c0 13.653333-13.653333 27.306667-27.306667 27.306667z" fill="#262D47" /><path d="M778.24 368.64c6.826667 13.653333 0 34.133333-13.653333 40.96L525.653333 525.653333c-13.653333 6.826667-34.133333 0-40.96-13.653333-6.826667-13.653333 0-34.133333 13.653334-40.96l238.933333-122.88c20.48 0 34.133333 6.826667 40.96 20.48z" fill="#262D47" /><path d="M225.28 368.64c-6.826667 13.653333 0 27.306667 13.653333 40.96L477.866667 532.48c13.653333 6.826667 34.133333 0 40.96-13.653333 6.826667-13.653333 0-34.133333-13.653334-40.96L266.24 354.986667c-13.653333-6.826667-27.306667 0-40.96 13.653333z" fill="#262D47" /></svg>