<?xml version="1.0" standalone="no"?><!DOCTYPE svg PUBLIC "-//W3C//DTD SVG 1.1//EN" "http://www.w3.org/Graphics/SVG/1.1/DTD/svg11.dtd"><svg class="icon" width="200px" height="200.00px" viewBox="0 0 1024 1024" version="1.1" xmlns="http://www.w3.org/2000/svg"><path d="M820.292267 787.797333a32.904533 32.904533 0 0 1 40.482133 1.706667l4.5056 4.642133 2.048 2.798934 43.963733 67.1744a79.4624 79.4624 0 0 1-62.532266 122.88l-4.3008 0.068266H196.608a79.4624 79.4624 0 0 1-70.997333-115.165866l2.184533-4.096 39.867733-69.632a32.904533 32.904533 0 0 1 58.299734 30.446933l-52.906667 92.637867h697.002667l-58.094934-88.746667a32.904533 32.904533 0 0 1 8.328534-44.782933zM523.605333 60.142933c191.6928 0 347.136 155.989333 347.136 348.433067 0 122.0608-97.962667 259.140267-297.984 416.631467a79.4624 79.4624 0 0 1-98.372266-0.068267l-10.24-8.123733C271.223467 663.074133 176.605867 528.657067 176.605867 408.644267 176.5376 216.200533 331.9808 60.2112 523.605333 60.2112z m0 65.7408c-155.306667 0-281.258667 126.5664-281.258666 282.624 0 94.0032 82.602667 209.5104 243.712 341.6064l18.978133 15.36 18.568533 14.7456 18.2272-14.404266 18.978134-15.36c161.3824-132.369067 244.1216-247.876267 244.1216-341.879467 0-156.125867-125.952-282.624-281.258667-282.624z m0 190.2592a91.067733 91.067733 0 1 1-8.738133 0.4096z" fill="#9D9FA6" /></svg>