<?xml version="1.0" standalone="no"?><!DOCTYPE svg PUBLIC "-//W3C//DTD SVG 1.1//EN" "http://www.w3.org/Graphics/SVG/1.1/DTD/svg11.dtd"><svg class="icon" width="200px" height="144.84px" viewBox="0 0 1414 1024" version="1.1" xmlns="http://www.w3.org/2000/svg"><path d="M917.010617 968.773466H298.742836a298.839049 298.839049 0 0 1-77.54806-586.902189 421.511228 421.511228 0 0 1 841.098187 35.310345l-86.592127 0.865921a334.919102 334.919102 0 0 0-669.74199 0v37.234614l-36.84976 5.195528A212.246923 212.246923 0 0 0 87.073194 670.511698a212.343136 212.343136 0 0 0 211.669642 211.669642h618.267781z"  /><path d="M1073.934793 1023.903787a342.61618 342.61618 0 0 1-264.971907-125.077516l67.349432-54.84168a256.505121 256.505121 0 0 0 444.794889-92.557362 259.776379 259.776379 0 0 0 6.446302-53.687118l-73.314667 28.190548-31.173165-80.723105 187.712487-72.448745 3.078831 59.748567c0.481067 9.621347 4.42582 93.90435-9.621347 142.588368a343.482101 343.482101 0 0 1-330.300855 248.808043zM727.277647 723.621535l3.848539-49.549939a566.986 566.986 0 0 1 12.988819-87.361834 343.19346 343.19346 0 0 1 555.729024-164.236399l-57.150803 65.136521a256.601334 256.601334 0 0 0-415.353566 122.96082 197.045194 197.045194 0 0 0-4.233393 20.685897l86.111059-5.195528 5.195528 86.592126z"  /><path d="M1005.4308 778.655642h144.32021v86.592126h-144.32021zM1005.4308 566.986h144.32021v86.592126h-144.32021z"  /><path d="M1034.294842 538.121958h86.592126v144.320211h-86.592126z"  /></svg>