<?xml version="1.0" standalone="no"?><!DOCTYPE svg PUBLIC "-//W3C//DTD SVG 1.1//EN" "http://www.w3.org/Graphics/SVG/1.1/DTD/svg11.dtd"><svg class="icon" width="200px" height="199.03px" viewBox="0 0 1029 1024" version="1.1" xmlns="http://www.w3.org/2000/svg"><path d="M147.911 207.644c36.978 0 68.267-22.755 79.645-56.888h236.088L665.6 349.866h82.489c11.378 34.134 42.667 56.89 79.644 56.89 48.356 0 85.334-36.978 85.334-85.334s-36.978-85.333-85.334-85.333c-36.977 0-68.266 22.755-79.644 56.889h-59.733L486.4 93.867H227.556c-11.378-34.134-42.667-56.89-79.645-56.89-48.355 0-85.333 36.979-85.333 85.334s36.978 85.333 85.333 85.333zM944.356 492.09c-48.356 0-85.334 36.978-85.334 85.333h-327.11L321.421 819.2h-147.91c-5.69-28.444-22.756-54.044-54.045-65.422C76.8 736.71 25.6 759.467 8.533 802.133-8.533 844.8 14.223 896 56.89 913.067c39.822 14.222 82.489 0 105.244-36.978h182.045L554.667 634.31h327.11c14.223 17.067 36.979 28.445 62.579 28.445 48.355 0 85.333-36.978 85.333-85.334s-39.822-85.333-85.333-85.333z m-853.334 51.2c36.978 0 68.267-22.756 79.645-56.889h125.155c11.378 34.133 42.667 56.889 79.645 56.889 48.355 0 85.333-36.978 85.333-85.333s-36.978-85.334-85.333-85.334c-36.978 0-68.267 22.756-79.645 56.89H170.667c-11.378-34.134-42.667-56.89-79.645-56.89-48.355 0-85.333 36.978-85.333 85.334s36.978 85.333 85.333 85.333zM631.467 861.867a85.333 85.333 0 1 0 170.666 0 85.333 85.333 0 1 0-170.666 0z" /></svg>