<?xml version="1.0" standalone="no"?><!DOCTYPE svg PUBLIC "-//W3C//DTD SVG 1.1//EN" "http://www.w3.org/Graphics/SVG/1.1/DTD/svg11.dtd"><svg class="icon" width="200px" height="200.00px" viewBox="0 0 1024 1024" version="1.1" xmlns="http://www.w3.org/2000/svg"><path d="M871.872 864.64c0 23.04-7.872 42.88-23.68 59.328a78.208 78.208 0 0 1-58.688 25.344H217.216c-23.04 0-42.56-8.448-58.752-25.344a82.88 82.88 0 0 1-23.616-59.392V138.048c0-23.04 7.872-42.88 23.616-59.392 16.128-16.896 35.712-25.344 58.688-25.344h434.944c13.376 0 24.512 4.992 33.472 15.04l174.4 193.408c7.936 8.832 11.904 19.2 11.84 31.104v571.712zM643.584 117.248H217.152a16.64 16.64 0 0 0-12.416 5.568 21.056 21.056 0 0 0-5.888 15.168v726.528c0 13.824 6.144 20.736 18.368 20.736h572.288c11.648 0 17.792-6.272 18.304-18.752V299.52l-164.224-182.208z"  /><path d="M698.56 800h-373.12c-9.6 0-17.92-3.2-25.088-9.472a35.008 35.008 0 0 1-12.352-27.328v-182.4c0-10.88 4.16-20.032 12.416-27.328a36.544 36.544 0 0 1 24.96-9.472h373.184c9.6 0 17.92 3.2 25.088 9.472a35.008 35.008 0 0 1 12.352 27.328v182.4c0 10.88-4.096 19.968-12.352 27.328a36.544 36.544 0 0 1-25.088 9.472z m-346.56-64h320v-128h-320v128zM320 352h320a32 32 0 0 1 0 64H320a32 32 0 0 1 0-64z"  /></svg>